<svg width="24" height="25" fill="none" xmlns="http://www.w3.org/2000/svg"><path d="m11.2 3.1.3.2c-.8.4-1.7 1.3-2.1 3.3L7.8 7c.5-1.4 1.5-3.9 3.4-3.9Zm.8.8c.1.4.3.9.3 1.7v.1l-2.1.6c.4-1.5 1.1-2.1 1.8-2.4Zm1.9 1.3-1 .3v-.3a5 5 0 0 0-.2-1.5c.5.1 1 .7 1.2 1.5Zm4.7 1.1-.2-.1-1.6-.2L15.5 5c-.1-.2-.3-.1-.4-.1l-.6.2c-.3-1-1-2-2-2h-.2c-.2-.4-.7-.5-1-.5-2.7 0-3.9 3.2-4.3 4.8L5.2 8c-.6.1-.6.2-.7.7L3 20.3l11.5 2.2 6.2-1.4-2.1-14.8Z" fill="#8DB849"/><path d="M18.4 6.2 16.8 6 15.5 5l-.1-.1-.9 17.7 6.2-1.4-2.1-14.8-.2-.1Z" fill="#5A863E"/><path d="m12.4 9.6-.8 2.3s-.6-.3-1.5-.3c-1.2 0-1.3.7-1.3.9 0 1 2.7 1.4 2.7 3.9 0 2-1.2 3.2-2.9 3.2-2 0-3-1.3-3-1.3l.6-1.7s1 .9 1.9.9c.5 0 .8-.5.8-.8 0-1.4-2.3-1.5-2.3-3.7 0-1.9 1.4-3.7 4-3.7 1.3 0 1.8.3 1.8.3Z" fill="#fff"/></svg>