<?xml version="1.0" encoding="UTF-8"?>
<svg width="9px" height="6px" viewBox="0 0 9 6" version="1.1" xmlns="http://www.w3.org/2000/svg" xmlns:xlink="http://www.w3.org/1999/xlink">
    <title>F4A59127-0B2E-4CD1-A13B-2F56153C1476</title>
    <g id="New-UI" stroke="none" stroke-width="1" fill="none" fill-rule="evenodd">
        <g id="Dashboard" transform="translate(-1634.000000, -32.000000)" fill="#2E2F3A">
            <path d="M1636.00118,35.0388736 C1636.01153,35.1972879 1636.08394,35.3471235 1636.20565,35.4641986 L1639.6329,38.7636356 C1639.77043,38.9032568 1639.96637,38.9881073 1640.17632,38.9988442 C1640.38627,39.0095839 1640.59195,38.9451418 1640.74652,38.8194786 C1640.9017,38.6943529 1640.99297,38.5192848 1640.99967,38.3340214 C1641.00576,38.1487443 1640.92726,37.9688562 1640.78182,37.835669 L1637.83657,35.0002152 L1640.78182,32.1647615 C1640.92726,32.0310436 1641.00576,31.85115 1640.99967,31.6658729 C1640.99298,31.4805957 1640.9017,31.3055331 1640.74652,31.1804157 C1640.59195,31.05529 1640.38627,30.9908493 1640.17632,31.00105 C1639.96637,31.0117897 1639.77042,31.0966389 1639.6329,31.2367948 L1636.20565,34.5362319 C1636.06325,34.6726347 1635.98962,34.8536102 1636.00118,35.0388736 Z" id="Fill-1" transform="translate(1638.500000, 35.000000) rotate(-90.000000) translate(-1638.500000, -35.000000) "></path>
        </g>
    </g>
</svg>