<svg width="23.751" height="15.5" viewBox="0 0 23.751 15.5" xmlns="http://www.w3.org/2000/svg">
    <g fill="#2E2F39" fill-rule="evenodd">
        <path d="m21.735 8.874.221-.19 1.795-1.538-.443-.52-1.573 1.348-1.573-1.348-.444.52 1.795 1.539zM13.375 5.782l-.263-.64c.903-2.084.844-2.146.668-2.324l-1.155-1.152-.115-.099h-.133c-.071 0-.28 0-2.037.812l-.646-.266C8.858 0 8.774 0 8.525 0H6.9c-.244 0-.34 0-1.112 2.12l-.644.267c-1.185-.512-1.882-.775-2.07-.775h-.155l-1.24 1.24c-.19.194-.256.257.7 2.31l-.264.637C0 6.632 0 6.713 0 6.975V8.6c0 .256 0 .346 2.122 1.122l.263.636c-.903 2.085-.843 2.147-.667 2.325l1.154 1.154.115.1h.135c.07 0 .277 0 2.035-.814l.645.269c.835 2.109.92 2.109 1.173 2.109h1.623c.25 0 .338 0 1.114-2.12l.647-.266c1.186.512 1.879.775 2.066.775h.155l1.252-1.25c.178-.183.24-.247-.71-2.292l.263-.637C15.5 8.868 15.5 8.78 15.5 8.525V6.901c0-.256 0-.346-2.125-1.12zM7.75 10.46a2.712 2.712 0 1 1-.013-5.423 2.712 2.712 0 0 1 .013 5.423z"/>
    </g>
</svg>
