<svg xmlns="http://www.w3.org/2000/svg" width="29" height="11" viewBox="0 0 29 11">
    <g fill="none" fill-rule="evenodd">
        <g fill="#000">
            <g>
                <path d="M26.996 3.2H1.804C.822 3.2 0 4.006 0 4.965v6.07c0 .96.823 1.765 1.804 1.765h25.192c.982 0 1.804-.806 1.804-1.765v-6.07c0-.96-.823-1.765-1.804-1.765zm.38 7.835c0 .217-.158.371-.38.371H1.804c-.222 0-.38-.186-.38-.371v-6.07c0-.217.158-.372.38-.372h2.152v2.2H5.38v-2.2h2.5v2.2h1.424v-2.2h2.5v2.2h1.424l.001-2.2h2.5v2.2h1.424v-2.2h2.5v2.2h1.393v-2.2h2.5v2.2h1.424v-2.2h2.057c.221 0 .38.155.38.372v6.07h-.031z" transform="translate(-324.000000, -657.000000) translate(324.000000, 654.400000)"/>
            </g>
        </g>
    </g>
</svg>
